<?xml version="1.0" encoding="UTF-8"?>
<svg id="Layer_1" data-name="Layer 1" xmlns="http://www.w3.org/2000/svg" viewBox="0 0 738 264">
  <defs>
    <style>
      .cls-1 {
        fill: #666;
        stroke-width: 0px;
      }

      .cls-2 {
        fill: none;
        opacity: .3;
        stroke: #ed1e79;
        stroke-linecap: round;
        stroke-linejoin: round;
        stroke-width: 4px;
      }
    </style>
  </defs>
  <path class="cls-2" d="M0,207.43l8.32,8.22,3.06,9.63,5.81-8.93,3.98-8.93h7.46v-4.91s4.51,1.95,5.47,0l.96-1.95,6.82,8.57,6.82,8.57,3.89-10.29,3.39-6.86,11.22,8.57,5.69-8.57v-4.18h6.96l7.8-9.54s1.43,1.71,3.64,0,5.13-5.14,5.13-5.14h3.82l3.97-3.43,2.92-6.86,5.84,6.86,2.19-6.86h2.49l2.14,15.43,3.89,22.29,3.89-5.14,5.84,60v-19.46l1.95,4.03,4.65-30.86h8.45l2.48-10.29s1.95,10.29,2.92,6.86c.97-3.43,6.82-25.71,6.82-25.71l4.87,5.14,7.79,6.86,3.89-13.71,5.84-3.43,4.17-12h5.47l4.96-17.14,3.89,18.86,6.82,1.71,5.84-15.43h4.87l3.89,22.29,2.04-27.43h7.95l3.64-8.57h5.81v-7.09l5.87.24,5.84-6.86,3.89,5.14v-9.9l4.87,18.47,2.92-24v-4.98h4.44l5.29,15.26,4.87-12,3.89,3.43,3.89-10.29,4.87-17.14h5.02l2.77-5.14,6.18,10.29,2.98-10.29h6.46l4.33,10.29,2.43-15.43,1.95-3.43h4.22l2.6-5.14h4.38l5.35-6.86,2.92,5.14,5.84-10.29,2.92,8.57h3.89l1.95,10.29,14.6-30.86h5.25l10.33,18.86v-27.92l3.89,15.92,5.67-15.92,2.12,10.78,2.92,1.71,2.92,22.29,4.87-10.29,4.87,15.43,1.95-5.14,4.87,10.29,1.95,8.57v-19.5l3.89-13.08h6.82l9.56,36,3.1,3.43,4.87,24v-31.97l7.45,4.54,3.26,37.71,3.89-17.14,3.89,8.57,2.92-10.29,3.89,6.86,3.01-25.71,5.75-5.14v-15.16l5.84,4.87,5.84,37.71,3.89-25.71,7.01,56.33v-19.8l5.64,14.9,3.89-34.29,2.92,25.71v-25.59l5.84,6.73,6.82-15.43,2.92,18.86,6.82,3.43,4.87-17.14,2.92,5.14,9.56-15.43,4.07,5.14,1.95,6.86,5.84-15.43v26.9l8.52-23.47h16.41l2.33-8.57,3.89,1.71,1.95-5.14,2.92-5.14,1.95-8.57s2.92,5.14,3.89,5.14,4.87-8.57,4.87-8.57l4.87,5.14v-7.68l4.87-9.47v8.59l5.73,5.25,2.06,8.44,5.84-17.14,3.89,8.57,3.89,1.71,2.92,12,8.09-2.21,7,23.64v-27.14l5.35-6.29v-8.59l6.82-6.84,3.86-15.92h5.47l5.27,9.06,12.66-30.86h3.45l4.34-8.57h5.6l2.19-8.57L728.26,0l9.74,18.86"/>
  <g>
    <path class="cls-1" d="M52.19,162.98L117.19,22.98h4l65,140h-4.6L118.19,26.18h2l-63.4,136.8h-4.6ZM73.59,120.78l2-3.8h87l2,3.8h-91Z"/>
    <path class="cls-1" d="M214.59,162.98V22.98h4v136.2h83.4v3.8h-87.4Z"/>
    <path class="cls-1" d="M362.78,163.58c-10.13,0-19.7-1.87-28.7-5.6-9-3.73-15.83-8.47-20.5-14.2l2.8-2.6c4.4,5.2,10.77,9.6,19.1,13.2,8.33,3.6,17.37,5.4,27.1,5.4s18.43-1.4,24.9-4.2c6.47-2.8,11.27-6.57,14.4-11.3,3.13-4.73,4.7-9.97,4.7-15.7,0-6.67-1.6-12.03-4.8-16.1-3.2-4.07-7.47-7.27-12.8-9.6-5.33-2.33-11.13-4.27-17.4-5.8-6.27-1.53-12.57-3.1-18.9-4.7-6.33-1.6-12.17-3.7-17.5-6.3-5.33-2.6-9.6-6.17-12.8-10.7-3.2-4.53-4.8-10.47-4.8-17.8,0-6.13,1.63-11.87,4.9-17.2,3.27-5.33,8.33-9.67,15.2-13,6.87-3.33,15.77-5,26.7-5,7.46,0,14.83,1.17,22.1,3.5,7.27,2.33,13.43,5.43,18.5,9.3l-2.2,3.2c-5.6-4.13-11.8-7.2-18.6-9.2s-13.33-3-19.6-3c-9.73,0-17.8,1.43-24.2,4.3-6.4,2.87-11.13,6.67-14.2,11.4-3.07,4.73-4.6,10.03-4.6,15.9,0,6.8,1.6,12.23,4.8,16.3,3.2,4.07,7.46,7.27,12.8,9.6,5.33,2.33,11.17,4.27,17.5,5.8,6.33,1.53,12.63,3.13,18.9,4.8,6.27,1.67,12.07,3.8,17.4,6.4,5.33,2.6,9.6,6.1,12.8,10.5,3.2,4.4,4.8,10.2,4.8,17.4,0,6.13-1.67,11.87-5,17.2-3.33,5.33-8.53,9.63-15.6,12.9-7.07,3.27-16.13,4.9-27.2,4.9Z"/>
    <path class="cls-1" d="M472.98,162.98V26.78h-52v-3.8h108v3.8h-52v136.2h-4Z"/>
    <path class="cls-1" d="M556.38,162.98V22.98h3.4l66.6,116.4h-1.8l66.4-116.4h3.4v140h-4V28.78h1.6l-65.4,114.4h-2.4l-65.6-114.4h1.8v134.2h-4Z"/>
  </g>
  <g>
    <path class="cls-1" d="M52.93,212.79h-11.7l-2.23,5.4h-5.98l11.23-25.2h5.76l11.27,25.2h-6.12l-2.23-5.4ZM51.09,208.36l-4-9.65-4,9.65h7.99Z"/>
    <path class="cls-1" d="M75.82,217.25c-.55.41-1.23.71-2.03.92-.8.2-1.65.31-2.54.31-2.3,0-4.09-.59-5.35-1.76-1.26-1.18-1.89-2.9-1.89-5.18v-7.96h-2.99v-4.32h2.99v-4.72h5.62v4.72h4.82v4.32h-4.82v7.88c0,.82.21,1.45.63,1.89.42.44,1.01.67,1.78.67.89,0,1.64-.24,2.27-.72l1.51,3.96Z"/>
    <path class="cls-1" d="M91.05,217.25c-.55.41-1.23.71-2.03.92-.8.2-1.65.31-2.54.31-2.3,0-4.09-.59-5.35-1.76-1.26-1.18-1.89-2.9-1.89-5.18v-7.96h-2.99v-4.32h2.99v-4.72h5.62v4.72h4.82v4.32h-4.82v7.88c0,.82.21,1.45.63,1.89.42.44,1.01.67,1.78.67.89,0,1.64-.24,2.27-.72l1.51,3.96Z"/>
    <path class="cls-1" d="M112.47,210.08h-14.65c.26,1.2.89,2.15,1.87,2.84.98.7,2.21,1.04,3.67,1.04,1.01,0,1.9-.15,2.68-.45s1.51-.77,2.18-1.42l2.99,3.24c-1.82,2.09-4.49,3.13-7.99,3.13-2.18,0-4.12-.43-5.8-1.28-1.68-.85-2.98-2.03-3.89-3.55-.91-1.51-1.37-3.23-1.37-5.15s.45-3.61,1.35-5.13c.9-1.52,2.14-2.71,3.71-3.56,1.57-.85,3.33-1.28,5.27-1.28s3.61.41,5.15,1.22c1.54.82,2.74,1.99,3.62,3.51.88,1.52,1.31,3.29,1.31,5.31,0,.07-.04.58-.11,1.51ZM99.33,203.86c-.86.72-1.39,1.7-1.58,2.95h9.54c-.19-1.22-.72-2.2-1.58-2.93-.86-.73-1.92-1.1-3.17-1.1s-2.34.36-3.2,1.08Z"/>
    <path class="cls-1" d="M133.91,200.69c1.48,1.44,2.21,3.58,2.21,6.41v11.09h-5.62v-10.22c0-1.54-.34-2.68-1.01-3.44-.67-.76-1.64-1.13-2.92-1.13-1.42,0-2.54.44-3.38,1.31-.84.88-1.26,2.18-1.26,3.91v9.58h-5.62v-19.37h5.36v2.27c.74-.82,1.67-1.45,2.77-1.89,1.1-.44,2.32-.67,3.64-.67,2.4,0,4.34.72,5.81,2.16Z"/>
    <path class="cls-1" d="M153.69,217.25c-.55.41-1.23.71-2.03.92-.8.2-1.65.31-2.54.31-2.3,0-4.09-.59-5.35-1.76-1.26-1.18-1.89-2.9-1.89-5.18v-7.96h-2.99v-4.32h2.99v-4.72h5.62v4.72h4.82v4.32h-4.82v7.88c0,.82.21,1.45.63,1.89.42.44,1.01.67,1.78.67.89,0,1.64-.24,2.27-.72l1.51,3.96Z"/>
    <path class="cls-1" d="M157.15,195.22c-.65-.6-.97-1.34-.97-2.23s.32-1.63.97-2.23c.65-.6,1.49-.9,2.52-.9s1.87.29,2.52.86c.65.58.97,1.3.97,2.16,0,.94-.32,1.71-.97,2.32s-1.49.92-2.52.92-1.87-.3-2.52-.9ZM156.86,198.82h5.62v19.37h-5.62v-19.37Z"/>
    <path class="cls-1" d="M171.42,217.2c-1.62-.85-2.89-2.03-3.8-3.55-.91-1.51-1.37-3.23-1.37-5.15s.46-3.64,1.37-5.15c.91-1.51,2.18-2.69,3.8-3.55,1.62-.85,3.45-1.28,5.49-1.28s3.86.43,5.47,1.28,2.87,2.03,3.78,3.55c.91,1.51,1.37,3.23,1.37,5.15s-.46,3.64-1.37,5.15c-.91,1.51-2.17,2.69-3.78,3.55-1.61.85-3.43,1.28-5.47,1.28s-3.87-.43-5.49-1.28ZM180.46,212.41c.92-.97,1.39-2.27,1.39-3.91s-.46-2.93-1.39-3.91c-.92-.97-2.11-1.46-3.55-1.46s-2.63.49-3.56,1.46c-.94.97-1.4,2.27-1.4,3.91s.47,2.93,1.4,3.91,2.12,1.46,3.56,1.46,2.62-.49,3.55-1.46Z"/>
    <path class="cls-1" d="M208.86,200.69c1.48,1.44,2.21,3.58,2.21,6.41v11.09h-5.62v-10.22c0-1.54-.34-2.68-1.01-3.44-.67-.76-1.64-1.13-2.92-1.13-1.42,0-2.54.44-3.38,1.31-.84.88-1.26,2.18-1.26,3.91v9.58h-5.62v-19.37h5.36v2.27c.74-.82,1.67-1.45,2.77-1.89,1.1-.44,2.32-.67,3.64-.67,2.4,0,4.34.72,5.81,2.16Z"/>
    <path class="cls-1" d="M226.73,192.99h5.83v20.45h12.64v4.75h-18.47v-25.2Z"/>
    <path class="cls-1" d="M251.66,217.2c-1.62-.85-2.89-2.03-3.8-3.55s-1.37-3.23-1.37-5.15.46-3.64,1.37-5.15c.91-1.51,2.18-2.69,3.8-3.55s3.45-1.28,5.49-1.28,3.86.43,5.47,1.28c1.61.85,2.87,2.03,3.78,3.55.91,1.51,1.37,3.23,1.37,5.15s-.46,3.64-1.37,5.15-2.17,2.69-3.78,3.55c-1.61.85-3.43,1.28-5.47,1.28s-3.87-.43-5.49-1.28ZM260.7,212.41c.92-.97,1.39-2.27,1.39-3.91s-.46-2.93-1.39-3.91c-.92-.97-2.11-1.46-3.55-1.46s-2.63.49-3.56,1.46c-.94.97-1.4,2.27-1.4,3.91s.47,2.93,1.4,3.91c.94.97,2.12,1.46,3.56,1.46s2.62-.49,3.55-1.46Z"/>
    <path class="cls-1" d="M289.1,200.69c1.48,1.44,2.21,3.58,2.21,6.41v11.09h-5.62v-10.22c0-1.54-.34-2.68-1.01-3.44s-1.64-1.13-2.92-1.13c-1.42,0-2.54.44-3.38,1.31-.84.88-1.26,2.18-1.26,3.91v9.58h-5.62v-19.37h5.36v2.27c.74-.82,1.67-1.45,2.77-1.89,1.1-.44,2.32-.67,3.64-.67,2.4,0,4.34.72,5.81,2.16Z"/>
    <path class="cls-1" d="M316.59,198.82v16.13c0,3.55-.92,6.19-2.77,7.92-1.85,1.73-4.55,2.59-8.1,2.59-1.87,0-3.65-.23-5.33-.68-1.68-.46-3.07-1.12-4.18-1.98l2.23-4.03c.82.67,1.85,1.21,3.1,1.6,1.25.4,2.5.59,3.74.59,1.94,0,3.38-.44,4.3-1.31.92-.88,1.39-2.2,1.39-3.98v-.83c-1.46,1.61-3.5,2.41-6.12,2.41-1.78,0-3.4-.39-4.88-1.17-1.48-.78-2.65-1.88-3.51-3.29-.86-1.42-1.3-3.05-1.3-4.9s.43-3.48,1.3-4.9c.86-1.42,2.03-2.51,3.51-3.29,1.48-.78,3.1-1.17,4.88-1.17,2.81,0,4.94.92,6.41,2.77v-2.48h5.33ZM309.62,211.33c.95-.88,1.42-2.02,1.42-3.44s-.47-2.56-1.42-3.44c-.95-.88-2.17-1.31-3.65-1.31s-2.71.44-3.67,1.31c-.96.88-1.44,2.02-1.44,3.44s.48,2.56,1.44,3.44c.96.88,2.18,1.31,3.67,1.31s2.71-.44,3.65-1.31Z"/>
    <path class="cls-1" d="M334.89,217.81c-1.86-.54-3.35-1.24-4.48-2.11l1.98-4.39c1.08.79,2.36,1.43,3.85,1.91,1.49.48,2.98.72,4.46.72,1.66,0,2.88-.25,3.67-.74.79-.49,1.19-1.15,1.19-1.96,0-.6-.23-1.1-.7-1.49-.47-.4-1.07-.71-1.8-.95-.73-.24-1.72-.5-2.97-.79-1.92-.46-3.49-.91-4.72-1.37-1.22-.46-2.27-1.19-3.15-2.2-.88-1.01-1.31-2.35-1.31-4.03,0-1.46.4-2.79,1.19-3.98.79-1.19,1.99-2.13,3.58-2.83,1.6-.7,3.55-1.04,5.85-1.04,1.61,0,3.18.19,4.72.58,1.54.38,2.88.94,4.03,1.66l-1.8,4.43c-2.33-1.32-4.66-1.98-6.98-1.98-1.63,0-2.84.26-3.62.79-.78.53-1.17,1.22-1.17,2.09s.45,1.51,1.35,1.93c.9.42,2.27.83,4.12,1.24,1.92.46,3.49.91,4.72,1.37s2.27,1.18,3.15,2.16c.88.98,1.31,2.32,1.31,4,0,1.44-.4,2.75-1.21,3.94-.8,1.19-2.01,2.13-3.62,2.83-1.61.7-3.56,1.04-5.87,1.04-1.99,0-3.92-.27-5.78-.81Z"/>
    <path class="cls-1" d="M372.55,200.69c1.48,1.44,2.21,3.58,2.21,6.41v11.09h-5.61v-10.22c0-1.54-.34-2.68-1.01-3.44s-1.64-1.13-2.92-1.13c-1.42,0-2.54.44-3.38,1.31-.84.88-1.26,2.18-1.26,3.91v9.58h-5.62v-26.71h5.62v9.36c.74-.74,1.64-1.31,2.7-1.71,1.06-.4,2.21-.59,3.46-.59,2.4,0,4.34.72,5.81,2.16Z"/>
    <path class="cls-1" d="M383.78,217.2c-1.62-.85-2.89-2.03-3.8-3.55s-1.37-3.23-1.37-5.15.46-3.64,1.37-5.15c.91-1.51,2.18-2.69,3.8-3.55s3.45-1.28,5.49-1.28,3.86.43,5.47,1.28c1.61.85,2.87,2.03,3.78,3.55.91,1.51,1.37,3.23,1.37,5.15s-.46,3.64-1.37,5.15-2.17,2.69-3.78,3.55c-1.61.85-3.43,1.28-5.47,1.28s-3.87-.43-5.49-1.28ZM392.82,212.41c.92-.97,1.39-2.27,1.39-3.91s-.46-2.93-1.39-3.91c-.92-.97-2.11-1.46-3.55-1.46s-2.63.49-3.56,1.46c-.94.97-1.4,2.27-1.4,3.91s.47,2.93,1.4,3.91c.94.97,2.12,1.46,3.56,1.46s2.62-.49,3.55-1.46Z"/>
    <path class="cls-1" d="M411.72,199.25c1.14-.48,2.45-.72,3.94-.72v5.18c-.62-.05-1.04-.07-1.26-.07-1.61,0-2.87.45-3.78,1.35s-1.37,2.25-1.37,4.05v9.14h-5.62v-19.37h5.36v2.56c.67-.94,1.58-1.64,2.72-2.12Z"/>
    <path class="cls-1" d="M432.18,217.25c-.55.41-1.23.71-2.03.92-.8.2-1.65.31-2.54.31-2.3,0-4.09-.59-5.35-1.76-1.26-1.18-1.89-2.9-1.89-5.18v-7.96h-2.99v-4.32h2.99v-4.72h5.62v4.72h4.82v4.32h-4.82v7.88c0,.82.21,1.45.63,1.89.42.44,1.01.67,1.78.67.89,0,1.64-.24,2.27-.72l1.51,3.96Z"/>
    <path class="cls-1" d="M434.27,205.8h10.19v4.5h-10.19v-4.5Z"/>
    <path class="cls-1" d="M453.21,197.74h-8.06v-4.75h21.96v4.75h-8.06v20.45h-5.83v-20.45Z"/>
    <path class="cls-1" d="M486.72,210.08h-14.65c.26,1.2.89,2.15,1.87,2.84s2.21,1.04,3.67,1.04c1.01,0,1.9-.15,2.68-.45.78-.3,1.51-.77,2.18-1.42l2.99,3.24c-1.82,2.09-4.49,3.13-7.99,3.13-2.18,0-4.12-.43-5.8-1.28-1.68-.85-2.98-2.03-3.89-3.55s-1.37-3.23-1.37-5.15.45-3.61,1.35-5.13c.9-1.52,2.14-2.71,3.71-3.56,1.57-.85,3.33-1.28,5.27-1.28s3.61.41,5.15,1.22c1.54.82,2.74,1.99,3.62,3.51s1.31,3.29,1.31,5.31c0,.07-.04.58-.11,1.51ZM473.58,203.86c-.86.72-1.39,1.7-1.58,2.95h9.54c-.19-1.22-.72-2.2-1.58-2.93-.86-.73-1.92-1.1-3.17-1.1s-2.34.36-3.2,1.08Z"/>
    <path class="cls-1" d="M498.66,199.25c1.14-.48,2.45-.72,3.94-.72v5.18c-.62-.05-1.04-.07-1.26-.07-1.61,0-2.87.45-3.78,1.35s-1.37,2.25-1.37,4.05v9.14h-5.62v-19.37h5.36v2.56c.67-.94,1.58-1.64,2.72-2.12Z"/>
    <path class="cls-1" d="M536.53,200.67c1.43,1.43,2.14,3.57,2.14,6.43v11.09h-5.62v-10.22c0-1.54-.32-2.68-.95-3.44-.64-.76-1.54-1.13-2.72-1.13-1.32,0-2.36.43-3.13,1.28-.77.85-1.15,2.12-1.15,3.8v9.72h-5.62v-10.22c0-3.05-1.22-4.57-3.67-4.57-1.3,0-2.33.43-3.1,1.28-.77.85-1.15,2.12-1.15,3.8v9.72h-5.62v-19.37h5.36v2.23c.72-.82,1.6-1.44,2.65-1.87,1.04-.43,2.19-.65,3.44-.65,1.37,0,2.6.27,3.71.81,1.1.54,1.99,1.33,2.66,2.36.79-1.01,1.79-1.79,3.01-2.34,1.21-.55,2.54-.83,3.98-.83,2.42,0,4.35.71,5.78,2.14Z"/>
    <path class="cls-1" d="M577.23,218.19l-.04-15.12-7.42,12.46h-2.63l-7.38-12.13v14.8h-5.47v-25.2h4.82l9.43,15.66,9.29-15.66h4.79l.07,25.2h-5.47Z"/>
    <path class="cls-1" d="M607.14,210.08h-14.65c.26,1.2.89,2.15,1.87,2.84s2.21,1.04,3.67,1.04c1.01,0,1.9-.15,2.68-.45.78-.3,1.51-.77,2.18-1.42l2.99,3.24c-1.82,2.09-4.49,3.13-7.99,3.13-2.18,0-4.12-.43-5.8-1.28-1.68-.85-2.98-2.03-3.89-3.55s-1.37-3.23-1.37-5.15.45-3.61,1.35-5.13c.9-1.52,2.14-2.71,3.71-3.56,1.57-.85,3.33-1.28,5.27-1.28s3.61.41,5.15,1.22c1.54.82,2.74,1.99,3.62,3.51s1.31,3.29,1.31,5.31c0,.07-.04.58-.11,1.51ZM594,203.86c-.86.72-1.39,1.7-1.58,2.95h9.54c-.19-1.22-.72-2.2-1.58-2.93-.86-.73-1.92-1.1-3.17-1.1s-2.34.36-3.2,1.08Z"/>
    <path class="cls-1" d="M641.58,200.67c1.43,1.43,2.14,3.57,2.14,6.43v11.09h-5.62v-10.22c0-1.54-.32-2.68-.95-3.44-.64-.76-1.54-1.13-2.72-1.13-1.32,0-2.36.43-3.13,1.28-.77.85-1.15,2.12-1.15,3.8v9.72h-5.62v-10.22c0-3.05-1.22-4.57-3.67-4.57-1.3,0-2.33.43-3.1,1.28-.77.85-1.15,2.12-1.15,3.8v9.72h-5.62v-19.37h5.36v2.23c.72-.82,1.6-1.44,2.65-1.87,1.04-.43,2.19-.65,3.44-.65,1.37,0,2.6.27,3.71.81,1.1.54,1.99,1.33,2.66,2.36.79-1.01,1.79-1.79,3.01-2.34,1.21-.55,2.54-.83,3.98-.83,2.42,0,4.35.71,5.78,2.14Z"/>
    <path class="cls-1" d="M652.7,217.2c-1.62-.85-2.89-2.03-3.8-3.55s-1.37-3.23-1.37-5.15.46-3.64,1.37-5.15c.91-1.51,2.18-2.69,3.8-3.55s3.45-1.28,5.49-1.28,3.86.43,5.47,1.28c1.61.85,2.87,2.03,3.78,3.55.91,1.51,1.37,3.23,1.37,5.15s-.46,3.64-1.37,5.15-2.17,2.69-3.78,3.55c-1.61.85-3.43,1.28-5.47,1.28s-3.87-.43-5.49-1.28ZM661.73,212.41c.92-.97,1.39-2.27,1.39-3.91s-.46-2.93-1.39-3.91c-.92-.97-2.11-1.46-3.55-1.46s-2.63.49-3.56,1.46c-.94.97-1.4,2.27-1.4,3.91s.47,2.93,1.4,3.91c.94.97,2.12,1.46,3.56,1.46s2.62-.49,3.55-1.46Z"/>
    <path class="cls-1" d="M680.63,199.25c1.14-.48,2.45-.72,3.94-.72v5.18c-.62-.05-1.04-.07-1.26-.07-1.61,0-2.87.45-3.78,1.35s-1.37,2.25-1.37,4.05v9.14h-5.62v-19.37h5.36v2.56c.67-.94,1.58-1.64,2.72-2.12Z"/>
    <path class="cls-1" d="M707.83,198.82l-8.75,20.56c-.89,2.23-1.99,3.8-3.29,4.72-1.31.91-2.89,1.37-4.73,1.37-1.01,0-2-.16-2.99-.47-.98-.31-1.79-.74-2.41-1.3l2.05-4c.43.38.93.68,1.49.9.56.22,1.12.32,1.67.32.77,0,1.39-.19,1.87-.56.48-.37.91-.99,1.3-1.85l.07-.18-8.39-19.51h5.8l5.44,13.14,5.47-13.14h5.4Z"/>
  </g>
</svg>